<svg xmlns="http://www.w3.org/2000/svg" viewBox="0 0 100.04 98.58"><g id="Layer_2" data-name="Layer 2"><g id="Layer_1-2" data-name="Layer 1"><path d="M39.93.24c-8.53,2.6-16.79,6.84-19.45,16-1.3,4.47-.7,9.81,3.62,12.35a7.27,7.27,0,0,0,4.83.93l-5.51-6.08.18.91,1.23-8.27c-.76,1.41-3.82,2.63-5.22,3.48-2.11,1.28-4.21,2.56-6.24,4A32.07,32.07,0,0,0,3.32,34C-1.8,43.15-.83,54.73,5.05,63.31c12.21,17.81,38.93,14.44,56,6.91C67.6,67.36,65.19,50.7,57.73,54A59.41,59.41,0,0,1,31.8,59.29c-7-.21-15.58-2.12-19.48-8.58-3.65-6.06,4-10.78,8.51-13.59C28.16,32.53,36.15,29,34,18.69c-.47-2.28-2.46-6.5-5.51-6.08a1.36,1.36,0,0,1-1.85-.4l3.62,12.35c1.46-5,8.57-6.72,13-8.07C50,14.45,47.89-2.18,39.93.24Z"/><path d="M42.92,50.79C52.17,40,66.27,34.68,71.17,20.32L61,18.55c3.53,14.66,7.13,29.32,11.86,43.66C77.05,75,82,87.83,91.81,97.46c2.92,2.87,6.44-.36,7.53-3.23a11.15,11.15,0,0,0-2.28-11.52c-8.31-8.17-12-20.26-15.44-31.06-4-12.43-7-25.18-10.05-37.87C70.2,8.09,63.73,5.06,61.36,12,57.67,22.82,44.08,28,37,36.31a11.28,11.28,0,0,0-1.71,11.63c1.16,2.69,4.95,6,7.68,2.85Z"/></g></g></svg>