<svg xmlns="http://www.w3.org/2000/svg" viewBox="0 0 169.33 169.33"><defs><style>.cls-1{fill:none;stroke:#000;stroke-miterlimit:10;stroke-width:6px;}</style></defs><g id="Layer_2" data-name="Layer 2"><g id="Layer_1-2" data-name="Layer 1"><rect class="cls-1" x="3" y="3" width="163.33" height="163.33"/><line class="cls-1" x1="3" y1="3" x2="166.33" y2="3"/><line class="cls-1" x1="3" y1="14.67" x2="166.33" y2="14.67"/><line class="cls-1" x1="3" y1="26.33" x2="166.33" y2="26.33"/><line class="cls-1" x1="3" y1="38" x2="166.33" y2="38"/><line class="cls-1" x1="3" y1="49.67" x2="166.33" y2="49.67"/><line class="cls-1" x1="3" y1="61.33" x2="166.33" y2="61.33"/><line class="cls-1" x1="3" y1="73" x2="166.33" y2="73"/><line class="cls-1" x1="3" y1="84.67" x2="166.33" y2="84.67"/><line class="cls-1" x1="3" y1="96.33" x2="166.33" y2="96.33"/><line class="cls-1" x1="3" y1="108" x2="166.33" y2="108"/><line class="cls-1" x1="3" y1="119.67" x2="166.33" y2="119.67"/><line class="cls-1" x1="3" y1="131.33" x2="166.33" y2="131.33"/><line class="cls-1" x1="3" y1="143" x2="166.33" y2="143"/><line class="cls-1" x1="3" y1="154.67" x2="166.33" y2="154.67"/><line class="cls-1" x1="3" y1="166.33" x2="166.33" y2="166.33"/></g></g></svg>