<svg xmlns="http://www.w3.org/2000/svg" viewBox="0 0 169.33 169.33"><defs><style>.cls-1{fill:none;stroke:#000;stroke-miterlimit:10;stroke-width:6px;}</style></defs><g id="Layer_2" data-name="Layer 2"><g id="Layer_1-2" data-name="Layer 1"><rect class="cls-1" x="3" y="3" width="163.33" height="163.33" transform="translate(0 169.33) rotate(-90)"/><line class="cls-1" x1="3" y1="166.33" x2="3" y2="3"/><line class="cls-1" x1="14.67" y1="166.33" x2="14.67" y2="3"/><line class="cls-1" x1="26.33" y1="166.33" x2="26.33" y2="3"/><line class="cls-1" x1="38" y1="166.33" x2="38" y2="3"/><line class="cls-1" x1="49.67" y1="166.33" x2="49.67" y2="3"/><line class="cls-1" x1="61.33" y1="166.33" x2="61.33" y2="3"/><line class="cls-1" x1="73" y1="166.33" x2="73" y2="3"/><line class="cls-1" x1="84.67" y1="166.33" x2="84.67" y2="3"/><line class="cls-1" x1="96.33" y1="166.33" x2="96.33" y2="3"/><line class="cls-1" x1="108" y1="166.33" x2="108" y2="3"/><line class="cls-1" x1="119.67" y1="166.33" x2="119.67" y2="3"/><line class="cls-1" x1="131.33" y1="166.33" x2="131.33" y2="3"/><line class="cls-1" x1="143" y1="166.33" x2="143" y2="3"/><line class="cls-1" x1="154.67" y1="166.33" x2="154.67" y2="3"/><line class="cls-1" x1="166.33" y1="166.33" x2="166.33" y2="3"/></g></g></svg>